<svg xmlns="http://www.w3.org/2000/svg" width="966" height="701" viewBox="335 124 966 701" role="img" aria-labelledby="title desc">
  <title id="title">CampaignCue logo</title>
  <desc id="desc">Transparent CampaignCue monogram mark.</desc>
  <path d="M 696,124 652,124 627,127 595,134 564,144 529,159 499,176 468,198 447,216 420,244 399,271 369,321 357,350 348,378 340,412 335,447 335,506 339,537 346,570 358,606 373,640 386,663 410,697 426,716 456,745 482,765 509,782 546,800 577,811 601,817 634,822 694,822 739,814 762,807 794,794 821,780 849,762 849,615 847,615 834,633 816,651 792,670 770,684 748,695 723,704 687,711 647,711 609,704 581,694 551,678 522,656 492,624 475,599 459,567 447,529 441,487 442,446 451,402 458,382 472,353 494,321 521,293 556,267 588,251 626,239 666,234 673,231 786,145 786,142 751,132 725,127 Z" fill="#d96e9b" fill-rule="evenodd"/>
  <path d="M 1039,129 983,126 947,130 903,142 879,152 855,165 821,190 804,206 786,227 772,247 756,277 745,310 742,327 742,579 751,591 761,595 818,595 829,590 836,580 836,356 839,339 850,312 868,286 892,264 925,245 964,233 980,231 1006,231 1023,233 1048,239 1081,253 1099,264 1120,280 1151,313 1168,338 1179,360 1192,401 1198,442 1198,480 1193,516 1185,546 1174,574 1160,600 1145,622 1114,656 1094,672 1072,686 1054,695 1029,704 978,714 869,812 870,815 931,824 973,825 1012,822 1043,816 1076,806 1098,797 1129,781 1155,764 1179,745 1204,721 1231,688 1252,656 1267,627 1278,600 1289,565 1297,526 1301,489 1301,443 1298,412 1289,367 1280,338 1269,310 1251,275 1229,242 1214,224 1194,204 1167,182 1133,161 1103,147 1067,135 Z" fill="#011b6d" fill-rule="evenodd"/>
</svg>
